<svg width="14" height="15" viewBox="0 0 14 15" fill="none" xmlns="http://www.w3.org/2000/svg">
<path d="M0.333252 15.0002V12.3335H13.6666V15.0002H0.333252ZM2.99992 9.66683H3.93325L9.13325 4.4835L8.64992 4.00016L8.18325 3.5335L2.99992 8.7335V9.66683ZM1.66659 11.0002V8.16683L9.13325 0.716829C9.25547 0.594607 9.39714 0.500163 9.55825 0.433496C9.71936 0.366829 9.88881 0.333496 10.0666 0.333496C10.2444 0.333496 10.4166 0.366829 10.5833 0.433496C10.7499 0.500163 10.8999 0.600163 11.0333 0.733496L11.9499 1.66683C12.0833 1.78905 12.1805 1.9335 12.2416 2.10016C12.3027 2.26683 12.3333 2.43905 12.3333 2.61683C12.3333 2.7835 12.3027 2.94739 12.2416 3.1085C12.1805 3.26961 12.0833 3.41683 11.9499 3.55016L4.49992 11.0002H1.66659ZM9.13325 4.4835L8.64992 4.00016L8.18325 3.5335L9.13325 4.4835Z" fill="#101010"/>
</svg>
